<svg width="1600" height="720" viewBox="0 0 1600 720" fill="none" xmlns="http://www.w3.org/2000/svg">
  <defs>
    <radialGradient id="bg-glow" cx="75%" cy="40%" r="60%">
      <stop offset="0%" stop-color="#1D4ED8" stop-opacity="0.18"/>
      <stop offset="50%" stop-color="#1E3A8A" stop-opacity="0.06"/>
      <stop offset="100%" stop-color="#050505" stop-opacity="0"/>
      <animate attributeName="cx" values="75%;80%;70%;75%" dur="22s" repeatCount="indefinite"/>
      <animate attributeName="cy" values="40%;35%;45%;40%" dur="22s" repeatCount="indefinite"/>
    </radialGradient>
    <radialGradient id="grid-fade" cx="50%" cy="50%" r="55%">
      <stop offset="0%" stop-color="#ffffff" stop-opacity="0.6"/>
      <stop offset="55%" stop-color="#ffffff" stop-opacity="0.18"/>
      <stop offset="100%" stop-color="#ffffff" stop-opacity="0.02"/>
      <animate attributeName="cx" values="40%;65%;40%" dur="30s" repeatCount="indefinite"/>
      <animate attributeName="cy" values="35%;65%;35%" dur="30s" repeatCount="indefinite"/>
    </radialGradient>
    <linearGradient id="signal-h" x1="0%" y1="0%" x2="100%" y2="100%">
      <stop offset="0%" stop-color="#3B82F6" stop-opacity="0"/>
      <stop offset="50%" stop-color="#3B82F6" stop-opacity="0.9"/>
      <stop offset="100%" stop-color="#3B82F6" stop-opacity="0"/>
    </linearGradient>
    <filter id="soft-glow" x="-30%" y="-30%" width="160%" height="160%">
      <feGaussianBlur stdDeviation="5" result="b"/>
      <feComposite in="SourceGraphic" in2="b" operator="over"/>
    </filter>
    <filter id="grain" x="0%" y="0%" width="100%" height="100%">
      <feTurbulence type="fractalNoise" baseFrequency="0.72" numOctaves="4" result="n">
        <animate attributeName="seed" values="1;90;1" dur="18s" repeatCount="indefinite"/>
      </feTurbulence>
      <feColorMatrix type="matrix" values="0 0 0 0 0  0 0 0 0 0  0 0 0 0 0  0 0 0 0.045 0"/>
      <feComposite in="SourceGraphic" operator="over"/>
    </filter>
    <mask id="gm">
      <rect width="1600" height="720" fill="url(#grid-fade)"/>
    </mask>
  </defs>

  <!-- Base -->
  <rect width="1600" height="720" fill="#050505"/>
  <rect width="1600" height="720" fill="url(#bg-glow)"/>

  <!-- Grid -->
  <g mask="url(#gm)">
    <path d="M80,0 V720 M160,0 V720 M240,0 V720 M320,0 V720 M400,0 V720 M480,0 V720 M560,0 V720 M640,0 V720 M720,0 V720 M800,0 V720 M880,0 V720 M960,0 V720 M1040,0 V720 M1120,0 V720 M1200,0 V720 M1280,0 V720 M1360,0 V720 M1440,0 V720 M1520,0 V720" stroke="#1C1C1E" stroke-width="0.5"/>
    <path d="M0,80 H1600 M0,160 H1600 M0,240 H1600 M0,320 H1600 M0,400 H1600 M0,480 H1600 M0,560 H1600 M0,640 H1600" stroke="#1C1C1E" stroke-width="0.5"/>
  </g>

  <!-- Particles -->
  <circle cx="310" cy="200" r="1.5" fill="#3B82F6" opacity="0.35">
    <animate attributeName="cy" values="200;175;200" dur="11s" repeatCount="indefinite"/>
    <animate attributeName="opacity" values="0.35;0.7;0.35" dur="11s" repeatCount="indefinite"/>
  </circle>
  <circle cx="760" cy="130" r="1" fill="#ffffff" opacity="0.2">
    <animate attributeName="cy" values="130;155;130" dur="14s" repeatCount="indefinite"/>
    <animate attributeName="opacity" values="0.2;0.5;0.2" dur="14s" repeatCount="indefinite"/>
  </circle>
  <circle cx="1400" cy="260" r="1.5" fill="#3B82F6" opacity="0.3">
    <animate attributeName="cy" values="260;235;260" dur="9s" repeatCount="indefinite"/>
    <animate attributeName="opacity" values="0.3;0.65;0.3" dur="9s" repeatCount="indefinite"/>
  </circle>
  <circle cx="980" cy="560" r="2" fill="#3B82F6" opacity="0.12">
    <animate attributeName="cy" values="560;540;560" dur="13s" repeatCount="indefinite"/>
    <animate attributeName="opacity" values="0.12;0.35;0.12" dur="13s" repeatCount="indefinite"/>
  </circle>

  <!-- Left anchor line -->
  <line x1="80" y1="80" x2="80" y2="640" stroke="#222222" stroke-width="1.5"/>
  <circle cx="80" cy="80" r="3.5" fill="#3B82F6"/>

  <!-- System label -->
  <text x="120" y="108" font-family="-apple-system,BlinkMacSystemFont,'Segoe UI',monospace" font-size="12" font-weight="700" fill="#3D3D45" letter-spacing="5">SYSTEM INITIALIZED</text>

  <!-- Name -->
  <text x="120" y="210" font-family="-apple-system,BlinkMacSystemFont,'Outfit','Segoe UI',sans-serif" font-size="100" font-weight="800" fill="#FFFFFF" letter-spacing="-4">GUNTI</text>
  <text x="120" y="312" font-family="-apple-system,BlinkMacSystemFont,'Outfit','Segoe UI',sans-serif" font-size="100" font-weight="800" fill="#FFFFFF" letter-spacing="-4">PRASANTH</text>
  <text x="120" y="414" font-family="-apple-system,BlinkMacSystemFont,'Outfit','Segoe UI',sans-serif" font-size="100" font-weight="800" fill="#FFFFFF" letter-spacing="-4">KUMAR</text>

  <!-- Role -->
  <text x="122" y="462" font-family="-apple-system,BlinkMacSystemFont,'Inter','Segoe UI',sans-serif" font-size="19" font-weight="600" fill="#3B82F6" letter-spacing="-0.3">AI Engineer  ·  Full Stack Developer</text>

  <!-- Mission -->
  <text x="122" y="506" font-family="-apple-system,BlinkMacSystemFont,'Inter','Segoe UI',sans-serif" font-size="17" font-weight="400" fill="#9A9A9A">Building production-ready AI systems that solve real-world problems.</text>

  <!-- Education -->
  <text x="122" y="553" font-family="-apple-system,BlinkMacSystemFont,'Inter','Segoe UI',sans-serif" font-size="14" font-weight="400" fill="#3D3D45">Information Technology Undergraduate</text>
  <text x="122" y="574" font-family="-apple-system,BlinkMacSystemFont,'Inter','Segoe UI',sans-serif" font-size="14" font-weight="400" fill="#3D3D45">Aditya University  ·  Class of 2027</text>

  <!-- Nav links -->
  <a href="https://prasanth-future-engine.netlify.app/" target="_blank">
    <text x="122" y="641" font-family="-apple-system,BlinkMacSystemFont,'Inter',sans-serif" font-size="14" font-weight="600" fill="#6B6B75">Portfolio ↗</text>
  </a>
  <a href="https://github.com/GuntiPrasanthKumar" target="_blank">
    <text x="248" y="641" font-family="-apple-system,BlinkMacSystemFont,'Inter',sans-serif" font-size="14" font-weight="600" fill="#6B6B75">GitHub ↗</text>
  </a>
  <a href="https://www.linkedin.com/in/gunti-prasanth-kumar-68207027a/" target="_blank">
    <text x="350" y="641" font-family="-apple-system,BlinkMacSystemFont,'Inter',sans-serif" font-size="14" font-weight="600" fill="#6B6B75">LinkedIn ↗</text>
  </a>
  <a href="mailto:prasanthgunti07@gmail.com" target="_blank">
    <text x="464" y="641" font-family="-apple-system,BlinkMacSystemFont,'Inter',sans-serif" font-size="14" font-weight="600" fill="#6B6B75">Email ↗</text>
  </a>

  <!-- Abstract AI graph — right panel -->
  <g transform="translate(90,20)">
    <!-- Structural lines -->
    <path d="M1000,185 L1155,120 M1155,120 L1330,215 M1330,215 L1390,425 M1390,425 L1240,525 M1240,525 L1085,472 M1085,472 L1000,185 M1085,472 L1155,320 M1155,320 L1330,215 M1000,185 L1155,320 M1155,320 L1390,425" stroke="#1A1A1D" stroke-width="1.5"/>
    <!-- Signal flows -->
    <line x1="1000" y1="185" x2="1155" y2="120" stroke="url(#signal-h)" stroke-width="2" stroke-dasharray="18 110">
      <animate attributeName="stroke-dashoffset" values="128;0" dur="5s" repeatCount="indefinite"/>
    </line>
    <line x1="1330" y1="215" x2="1390" y2="425" stroke="url(#signal-h)" stroke-width="2" stroke-dasharray="18 175">
      <animate attributeName="stroke-dashoffset" values="193;0" dur="6.5s" repeatCount="indefinite"/>
    </line>
    <line x1="1085" y1="472" x2="1155" y2="320" stroke="url(#signal-h)" stroke-width="2" stroke-dasharray="14 125">
      <animate attributeName="stroke-dashoffset" values="139;0" dur="4.2s" repeatCount="indefinite"/>
    </line>
    <line x1="1155" y1="320" x2="1330" y2="215" stroke="url(#signal-h)" stroke-width="2" stroke-dasharray="22 145">
      <animate attributeName="stroke-dashoffset" values="167;0" dur="5.5s" repeatCount="indefinite"/>
    </line>
    <!-- Nodes -->
    <circle cx="1000" cy="185" r="5" fill="none" stroke="#27272A" stroke-width="1"/>
    <circle cx="1000" cy="185" r="4" fill="#3B82F6"/>
    <circle cx="1155" cy="120" r="14" fill="none" stroke="#27272A" stroke-width="1" opacity="0.35">
      <animate attributeName="r" values="8;20;8" dur="8s" repeatCount="indefinite"/>
    </circle>
    <circle cx="1155" cy="120" r="4.5" fill="#FFFFFF"/>
    <circle cx="1330" cy="215" r="5" fill="none" stroke="#27272A" stroke-width="1"/>
    <circle cx="1330" cy="215" r="4" fill="#3B82F6"/>
    <circle cx="1390" cy="425" r="5" fill="none" stroke="#27272A" stroke-width="1"/>
    <circle cx="1390" cy="425" r="4.5" fill="#FFFFFF"/>
    <circle cx="1240" cy="525" r="5" fill="none" stroke="#27272A" stroke-width="1"/>
    <circle cx="1240" cy="525" r="4" fill="#3B82F6"/>
    <circle cx="1085" cy="472" r="16" fill="none" stroke="#27272A" stroke-width="1" opacity="0.35">
      <animate attributeName="r" values="10;22;10" dur="7s" repeatCount="indefinite"/>
    </circle>
    <circle cx="1085" cy="472" r="4.5" fill="#FFFFFF"/>
    <!-- Central active node -->
    <circle cx="1155" cy="320" r="24" fill="none" stroke="#3B82F6" stroke-width="1" opacity="0.25">
      <animate attributeName="r" values="14;32;14" dur="5s" repeatCount="indefinite"/>
      <animate attributeName="stroke-opacity" values="0.25;0;0.25" dur="5s" repeatCount="indefinite"/>
    </circle>
    <circle cx="1155" cy="320" r="6.5" fill="#3B82F6"/>
  </g>

  <!-- Grain overlay -->
  <rect width="1600" height="720" fill="transparent" filter="url(#grain)" pointer-events="none"/>
  <!-- Border -->
  <rect x="0.5" y="0.5" width="1599" height="719" rx="16" stroke="#222222" stroke-width="1" fill="none"/>
</svg>
