<svg width="800" height="340" viewBox="0 0 800 340" fill="none" xmlns="http://www.w3.org/2000/svg">
  <!-- Styles and native animations -->
  <style>
    .bg { fill: #0A0A0A; stroke: #27272A; stroke-width: 1; rx: 8px; }
    .label-header { font-family: -apple-system, BlinkMacSystemFont, "Segoe UI", Roboto, sans-serif; font-size: 11px; font-weight: 700; fill: #71717A; letter-spacing: 1.5px; }
    .header { font-family: -apple-system, BlinkMacSystemFont, "Segoe UI", Roboto, sans-serif; font-size: 11px; font-weight: 700; fill: #71717A; letter-spacing: 1.5px; }
    .item { font-family: -apple-system, BlinkMacSystemFont, "Segoe UI", Roboto, sans-serif; font-size: 13px; font-weight: 500; fill: #EDEDED; }
    .sub-item { font-family: -apple-system, BlinkMacSystemFont, "Segoe UI", Roboto, sans-serif; font-size: 11px; font-weight: 400; fill: #71717A; }
    .divider { stroke: #27272A; stroke-width: 1; }

    /* Seamless Glowing Blue Border Trace (Perimeter = 2180) */
    .border-trace {
      stroke: #3B82F6;
      stroke-width: 1.5;
      stroke-linecap: round;
      stroke-dasharray: 180 2000;
      animation: traceTech 6s linear infinite;
    }

    /* 3D Grid Horizontals Scroll */
    .grid-line { stroke: #14141A; stroke-width: 1; }
    .horiz-1 { animation: horizScroll 4s linear infinite; }
    .horiz-2 { animation: horizScroll 4s linear infinite 1s; }
    .horiz-3 { animation: horizScroll 4s linear infinite 2s; }
    .horiz-4 { animation: horizScroll 4s linear infinite 3s; }

    /* Keyframes */
    @keyframes traceTech {
      0% { stroke-dashoffset: 0; }
      100% { stroke-dashoffset: -2180; }
    }
    @keyframes horizScroll {
      0% { transform: translateY(0); opacity: 0.1; }
      20% { opacity: 0.4; }
      80% { opacity: 0.4; }
      100% { transform: translateY(280px); opacity: 0; }
    }
  </style>

  <!-- Defs & Hardware Accelerated Filters -->
  <defs>
    <!-- Blue Neon Glow Filter -->
    <filter id="glow-blue" x="-20%" y="-20%" width="140%" height="140%">
      <feGaussianBlur stdDeviation="3" result="blur" />
      <feMerge>
        <feMergeNode in="blur" />
        <feMergeNode in="SourceGraphic" />
      </feMerge>
    </filter>
    <!-- Background Grid Pattern -->
    <pattern id="grid" width="24" height="24" patternUnits="userSpaceOnUse">
      <path d="M 24 0 L 0 0 0 24" fill="none" stroke="#16161D" stroke-width="0.7" />
    </pattern>
  </defs>

  <!-- Section Label -->
  <text x="56" y="36" class="label-header">SKILL SET</text>

  <!-- Background Base -->
  <rect x="0.5" y="48.5" width="799" height="290" class="bg"/>

  <!-- ================= 3D CYBER-GRID BACKGROUND (BLUE) ================= -->
  <g opacity="0.3">
    <!-- Perspective lines originating from center horizon (400, 120) to bottom -->
    <line x1="400" y1="120" x2="-200" y2="338" class="grid-line" />
    <line x1="400" y1="120" x2="0" y2="338" class="grid-line" />
    <line x1="400" y1="120" x2="150" y2="338" class="grid-line" />
    <line x1="400" y1="120" x2="300" y2="338" class="grid-line" />
    <line x1="400" y1="120" x2="400" y2="338" class="grid-line" stroke-width="1.5" />
    <line x1="400" y1="120" x2="500" y2="338" class="grid-line" />
    <line x1="400" y1="120" x2="650" y2="338" class="grid-line" />
    <line x1="400" y1="120" x2="800" y2="338" class="grid-line" />
    <line x1="400" y1="120" x2="1000" y2="338" class="grid-line" />

    <!-- Moving horizontal lines scrolled via Y translation -->
    <g transform="translate(0, 120)">
      <line x1="-200" y1="0" x2="1000" y2="0" class="grid-line horiz-1" />
      <line x1="-200" y1="0" x2="1000" y2="0" class="grid-line horiz-2" />
      <line x1="-200" y1="0" x2="1000" y2="0" class="grid-line horiz-3" />
      <line x1="-200" y1="0" x2="1000" y2="0" class="grid-line horiz-4" />
    </g>
  </g>

  <!-- Glowing Border Light Trail (Perimeter = 2180) -->
  <rect x="0.5" y="48.5" width="799" height="290" fill="none" class="border-trace" rx="8" filter="url(#glow-blue)" />

  <!-- Column Dividers -->
  <line x1="266" y1="49" x2="266" y2="338" class="divider"/>
  <line x1="533" y1="49" x2="533" y2="338" class="divider"/>

  <!-- Column Headers -->
  <text x="56" y="74" class="header">AI &amp; MACHINE LEARNING</text>
  <text x="312" y="74" class="header">SOFTWARE ENGINEERING</text>
  <text x="578" y="74" class="header">DEVELOPER TOOLKIT</text>

  <!-- ================= COLUMN 1: AI / ML ================= -->
  <!-- Python -->
  <g transform="translate(56, 94)">
    <g>
      <!-- Python Snake Abstract Vector -->
      <path d="M10 2C5.58 2 2 5.58 2 10C2 14.42 5.58 18 10 18H14V14H10C7.79 14 6 12.21 6 10C6 7.79 7.79 6 10 6H22V10C22 14.42 18.42 18 14 18" stroke="#3B82F6" stroke-width="2" stroke-linecap="round" stroke-linejoin="round" filter="url(#glow-blue)" />
      <circle cx="10" cy="10" r="2" fill="#EDEDED"/>
      <animate attributeName="opacity" values="0.7;1;0.7" dur="4s" repeatCount="indefinite" />
    </g>
    <text x="36" y="14" class="item">Python</text>
  </g>

  <!-- FastAPI -->
  <g transform="translate(56, 134)">
    <g>
      <!-- FastAPI Lightning Bolt Vector -->
      <path d="M12 2L4 12H11L10 20L18 10H11L12 2Z" fill="#10B981" stroke="#059669" stroke-width="1" />
      <animate attributeName="opacity" values="0.6;1;0.6" dur="2s" repeatCount="indefinite" />
    </g>
    <text x="36" y="14" class="item">FastAPI</text>
  </g>

  <!-- Gemini API -->
  <g transform="translate(56, 174)">
    <g>
      <!-- Gemini Sparkle Vector -->
      <path d="M12 4L14.5 9.5L20 12L14.5 14.5L12 20L9.5 14.5L4 12L9.5 9.5L12 4Z" fill="#3B82F6" filter="url(#glow-blue)">
        <animate attributeName="opacity" values="0.6;1;0.6" dur="3s" repeatCount="indefinite" />
      </path>
    </g>
    <text x="36" y="14" class="item">Gemini API</text>
  </g>

  <!-- OpenAI API -->
  <g transform="translate(56, 214)">
    <g>
      <!-- OpenAI Spiral Vector -->
      <path d="M12 6A6 6 0 0118 12M12 6A6 6 0 006 12M12 6V18M6 12A6 6 0 0012 18M18 12A6 6 0 0112 18" stroke="#EDEDED" stroke-width="2" stroke-linecap="round">
        <animate attributeName="stroke" values="#10B981;#EDEDED;#10B981" dur="4s" repeatCount="indefinite" />
      </path>
    </g>
    <text x="36" y="14" class="item">OpenAI API</text>
  </g>

  <!-- LangChain & LangGraph -->
  <g transform="translate(56, 254)">
    <!-- Node Connection Vector -->
    <g>
      <circle cx="6" cy="6" r="3" fill="#EDEDED"/>
      <circle cx="18" cy="14" r="3" fill="#3B82F6" filter="url(#glow-blue)"/>
      <line x1="6" y1="6" x2="18" y2="14" stroke="#71717A" stroke-width="1.5" />
      <animate attributeName="opacity" values="0.7;1;0.7" dur="3s" repeatCount="indefinite" />
    </g>
    <text x="36" y="10" class="item">LangChain / LangGraph</text>
    <text x="36" y="22" class="sub-item">Learning / Active Integration</text>
  </g>


  <!-- ================= COLUMN 2: SOFTWARE ENGINEERING ================= -->
  <!-- React.js & Vite -->
  <g transform="translate(312, 94)">
    <!-- React Atom Vector (Native center rotation) -->
    <g>
      <ellipse rx="12" ry="4" transform="translate(12,10)" stroke="#3B82F6" stroke-width="1" fill="none"/>
      <ellipse rx="12" ry="4" transform="translate(12,10) rotate(60)" stroke="#3B82F6" stroke-width="1" fill="none"/>
      <ellipse rx="12" ry="4" transform="translate(12,10) rotate(120)" stroke="#3B82F6" stroke-width="1" fill="none"/>
      <circle cx="12" cy="10" r="2.5" fill="#3B82F6"/>
      <animateTransform attributeName="transform" type="rotate" from="0 12 10" to="360 12 10" dur="12s" repeatCount="indefinite" />
    </g>
    <text x="36" y="14" class="item">React.js &amp; Vite</text>
  </g>

  <!-- JavaScript -->
  <g transform="translate(312, 134)">
    <!-- JS Shield -->
    <rect x="4" y="2" width="16" height="16" rx="2" fill="#FBBF24"/>
    <text x="8" y="14" font-family="sans-serif" font-size="10" font-weight="900" fill="#0A0A0A">JS</text>
    <text x="36" y="14" class="item">JavaScript</text>
  </g>

  <!-- Node.js & Express -->
  <g transform="translate(312, 174)">
    <!-- Hexagonal Node Vector -->
    <polygon points="12,2 20,6 20,14 12,18 4,14 4,6" fill="none" stroke="#10B981" stroke-width="2"/>
    <circle cx="12" cy="10" r="3" fill="#10B981"/>
    <text x="36" y="14" class="item">Node.js &amp; Express</text>
  </g>

  <!-- MongoDB -->
  <g transform="translate(312, 214)">
    <g>
      <!-- MongoDB Leaf Vector -->
      <path d="M12 2C12 2 6 7 6 12C6 16.42 12 20 12 20C12 20 18 16.42 18 12C18 7 12 2 12 2Z" fill="none" stroke="#10B981" stroke-width="1.5" />
      <path d="M12 2V20" stroke="#10B981" stroke-width="1.5"/>
      <animate attributeName="opacity" values="0.7;1;0.7" dur="4s" repeatCount="indefinite" />
    </g>
    <text x="36" y="14" class="item">MongoDB</text>
  </g>

  <!-- MySQL -->
  <g transform="translate(312, 254)">
    <!-- Database Stack Vector -->
    <ellipse cx="12" cy="6" rx="8" ry="3" fill="none" stroke="#3B82F6" stroke-width="1.5"/>
    <path d="M4 6V11C4 12.66 12 14 12 14C12 14 20 12.66 20 11V6" fill="none" stroke="#3B82F6" stroke-width="1.5"/>
    <path d="M4 11V16C4 17.66 12 19 12 19C12 19 20 17.66 20 16V11" fill="none" stroke="#3B82F6" stroke-width="1.5"/>
    <text x="36" y="14" class="item">MySQL</text>
  </g>


  <!-- ================= COLUMN 3: DEVELOPER TOOLKIT ================= -->
  <!-- Git & GitHub -->
  <g transform="translate(578, 94)">
    <!-- Git Branch Vector -->
    <circle cx="8" cy="6" r="2.5" fill="#EDEDED"/>
    <circle cx="8" cy="14" r="2.5" fill="#EDEDED"/>
    <circle cx="16" cy="14" r="2.5" fill="#3B82F6" filter="url(#glow-blue)"/>
    <line x1="8" y1="6" x2="8" y2="14" stroke="#71717A" stroke-width="1.5"/>
    <path d="M8 10C12 10 16 11 16 14" stroke="#71717A" stroke-width="1.5" fill="none"/>
    <text x="36" y="14" class="item">Git &amp; GitHub</text>
  </g>

  <!-- Tailwind CSS -->
  <g transform="translate(578, 134)">
    <g>
      <!-- Tailwind Wave Vector -->
      <path d="M6 10C6 10 9 6 12 6C16 6 18 10 18 10C18 10 15 14 12 14C8 14 6 10 6 10Z" fill="#3B82F6" opacity="0.8"/>
      <path d="M10 12C10 12 12 9 14 9C16.67 9 18 12 18 12C18 12 16 15 14 15C11.33 15 10 12 10 12Z" fill="#06B6D4" opacity="0.8"/>
      <animateTransform attributeName="transform" type="translate" values="0,0; 2,0; 0,0" dur="4s" repeatCount="indefinite" />
    </g>
    <text x="36" y="14" class="item">Tailwind CSS</text>
  </g>

  <!-- VS Code -->
  <g transform="translate(578, 174)">
    <!-- VS Code Ribbon Vector -->
    <path d="M4 6L14 2V18L4 14V6Z" fill="none" stroke="#3B82F6" stroke-width="1.5"/>
    <path d="M14 2L20 7V13L14 18" stroke="#3B82F6" stroke-width="1.5"/>
    <text x="36" y="14" class="item">VS Code</text>
  </g>

  <!-- Docker -->
  <g transform="translate(578, 214)">
    <!-- Docker Whale/Ship Vector with local native float -->
    <g>
      <rect x="6" y="4" width="4" height="4" fill="#3B82F6" rx="0.5"/>
      <rect x="12" y="4" width="4" height="4" fill="#3B82F6" rx="0.5"/>
      <rect x="9" y="9" width="4" height="4" fill="#3B82F6" rx="0.5"/>
      <path d="M4 14C4 14 8 16 12 16C16 16 20 14 20 14V11H4V14Z" fill="none" stroke="#3B82F6" stroke-width="1.5"/>
      <animateTransform attributeName="transform" type="translate" values="0,0; 0,-3; 0,0" dur="4s" repeatCount="indefinite" />
    </g>
    <text x="36" y="10" class="item">Docker</text>
    <text x="36" y="22" class="sub-item">Learning / Dev Container</text>
  </g>

  <!-- Vercel & Render -->
  <g transform="translate(578, 254)">
    <!-- Triangles Vector -->
    <polygon points="12,4 20,16 4,16" fill="#EDEDED"/>
    <text x="36" y="14" class="item">Vercel &amp; Render</text>
  </g>
</svg>
